<svg width="35" height="33" viewBox="0 0 35 33" fill="none" xmlns="http://www.w3.org/2000/svg">
<path d="M2.97606 25.1438C0.15191 27.799 0 32.6388 0 32.6388C0 32.6388 5.14424 32.4959 7.97184 29.8407C10.7994 27.1855 11.9698 23.9818 10.5888 22.6866C9.20784 21.3882 5.80021 22.4886 2.97606 25.1438Z" fill="url(#paint0_linear_5_143)"/>
<path opacity="0.2" d="M8.97652 22.7906C9.47023 22.7906 9.84655 22.9107 10.0986 23.1444C11.048 24.037 10.2056 26.8188 7.48158 29.3831C5.51366 31.2333 2.23722 31.7786 0.752646 31.9344C0.918367 30.5387 1.49839 27.4583 3.46286 25.6081C5.28234 23.8942 7.44706 22.7906 8.97652 22.7906ZM8.97652 22.1414C7.31586 22.1414 4.99578 23.245 2.97606 25.1471C0.15191 27.8023 0 32.6421 0 32.6421C0 32.6421 5.14424 32.4992 7.97184 29.844C10.7994 27.1888 11.9698 23.9851 10.5888 22.6899C10.1953 22.3134 9.6394 22.1414 8.97652 22.1414Z" fill="#424242"/>
<path d="M3.83229 26.0787C2.05425 27.7504 1.95758 30.7951 1.95758 30.7951C1.95758 30.7951 5.19603 30.7042 6.97408 29.0325C8.75212 27.3608 9.49095 25.3419 8.62092 24.5271C7.75089 23.7124 5.61379 24.4038 3.83229 26.0787Z" fill="url(#paint1_linear_5_143)"/>
<path d="M7.47808 26.1078C9.16981 27.8054 11.3898 27.6269 11.5728 27.3478L13.1195 24.9847C13.2127 24.8419 13.1264 24.6147 13.0608 24.5562L8.8867 20.6319C8.82111 20.5702 8.58979 20.4988 8.43788 20.5864L5.92445 22.0406C5.63099 22.2126 5.29955 23.9168 7.47808 26.1078Z" fill="#546E7A"/>
<path d="M18.8438 30.425C18.4985 30.6879 18.0359 30.6295 17.9772 30.24C17.8149 29.1623 17.922 26.9973 16.4788 25.6404C15.0702 24.3161 12.7812 24.1213 12.7812 24.1213L21.3986 20.1288C21.3986 20.1288 23.0213 22.4821 22.1271 25.832C21.3814 28.6008 20.1074 29.4545 18.8438 30.425Z" fill="#0288D1"/>
<path opacity="0.2" d="M20.9119 21.4369C20.974 21.596 21.0396 21.7777 21.0983 21.979C21.3331 22.784 21.5299 24.0661 21.119 25.5918C20.5977 27.5458 19.8174 28.3833 18.9025 29.1169C18.7851 27.8769 18.5296 26.189 17.2073 24.949C16.724 24.4946 16.1578 24.1505 15.6019 23.8941L20.9119 21.4369ZM21.3952 20.1288L12.7778 24.1213C12.7778 24.1213 15.0702 24.3193 16.4754 25.6404C17.9186 26.9973 17.8115 29.1623 17.9738 30.24C18.0083 30.4704 18.1878 30.5873 18.3985 30.5873C18.5435 30.5873 18.7023 30.5321 18.8404 30.425C20.104 29.4545 21.378 28.6008 22.1203 25.832C23.0214 22.4789 21.3952 20.1288 21.3952 20.1288Z" fill="#424242"/>
<path d="M2.45819 15.4838C2.11984 15.7565 2.24068 16.2434 2.65498 16.2985C3.80121 16.4511 6.10404 16.3505 7.54718 17.7073C8.95581 19.0317 9.24927 20.9078 9.24927 20.9078L13.413 12.6209C13.413 12.6209 11.2103 11.6503 8.00637 12.4326C5.79676 12.9747 3.60442 14.5555 2.45819 15.4838Z" fill="#0288D1"/>
<path opacity="0.2" d="M10.4922 13.1012C11.0688 13.1012 11.5659 13.1597 11.9595 13.2311L9.37013 18.3922C9.09393 17.928 8.73833 17.4508 8.27914 17.0224C7.0535 15.87 5.42392 15.5812 4.13959 15.4578C5.25475 14.6593 6.7704 13.7439 8.26188 13.3771C9.00762 13.1921 9.75681 13.1012 10.4922 13.1012ZM10.4922 12.1274C9.76372 12.1274 8.92476 12.2086 8.00639 12.4326C5.79679 12.9746 3.6079 14.5554 2.46167 15.4838C2.12332 15.7564 2.24416 16.2433 2.65846 16.2985C3.80469 16.4511 6.10751 16.3504 7.55066 17.7073C8.95929 19.0316 9.25275 20.9078 9.25275 20.9078L13.413 12.6208C13.413 12.6208 12.2944 12.1274 10.4922 12.1274Z" fill="#424242"/>
<path opacity="0.2" d="M8.53457 21.6772L11.9595 24.8972L10.8788 26.5494C10.8443 26.5526 10.8063 26.5526 10.7649 26.5526C10.43 26.5526 9.26305 26.4715 8.2342 25.4392C6.93261 24.1311 6.72891 23.1086 6.74617 22.7094L8.53457 21.6772ZM8.60707 20.5443C8.54838 20.5443 8.48969 20.5573 8.4379 20.5833L5.92448 22.0375C5.62756 22.2095 5.29612 23.9136 7.47465 26.1047C8.58291 27.218 9.91903 27.5264 10.7614 27.5264C11.2034 27.5264 11.5072 27.442 11.5693 27.3446L13.1161 24.9816C13.2093 24.8387 13.123 24.6115 13.0574 24.5531L8.88673 20.632C8.8453 20.593 8.72791 20.5443 8.60707 20.5443Z" fill="#424242"/>
<path d="M24.3471 1.79883C25.7453 2.40258 27.6304 3.44129 29.4291 5.13244C30.0644 5.7297 30.6065 6.33994 31.076 6.9372C31.984 8.08952 32.6055 9.1899 33.0129 10.0501C32.1048 12.2931 30.3924 14.9028 28.7179 16.4771C21.8785 22.9074 14.3244 26.5786 10.4162 23.9785C10.1883 23.826 9.96391 23.6864 9.76021 23.5144C6.40783 20.6806 10.247 12.569 17.2211 6.0121C18.9715 4.36639 21.8889 2.68498 24.3471 1.79883Z" fill="url(#paint2_radial_5_143)"/>
<path d="M22.5276 14.0005C24.2246 14.0005 25.6003 12.7071 25.6003 11.1116C25.6003 9.51607 24.2246 8.22266 22.5276 8.22266C20.8305 8.22266 19.4548 9.51607 19.4548 11.1116C19.4548 12.7071 20.8305 14.0005 22.5276 14.0005Z" fill="#455A64"/>
<path opacity="0.2" d="M22.5276 8.87185C23.1629 8.87185 23.7636 9.10556 24.2124 9.52754C24.6613 9.94951 24.9098 10.5143 24.9098 11.1116C24.9098 11.7088 24.6613 12.2736 24.2124 12.6956C23.7636 13.1176 23.1629 13.3513 22.5276 13.3513C21.8923 13.3513 21.2916 13.1176 20.8428 12.6956C19.9141 11.8224 19.9141 10.4007 20.8428 9.52754C21.2916 9.10556 21.8889 8.87185 22.5276 8.87185ZM22.5276 8.22266C21.7404 8.22266 20.9533 8.50506 20.3525 9.06985C19.151 10.1995 19.151 12.0269 20.3525 13.1565C20.9533 13.7213 21.7404 14.0037 22.5276 14.0037C23.3148 14.0037 24.1019 13.7213 24.7027 13.1565C25.9042 12.0269 25.9042 10.1995 24.7027 9.06985C24.1019 8.50506 23.3148 8.22266 22.5276 8.22266Z" fill="#424242"/>
<path d="M16.1888 19.5283C17.4168 19.5283 18.4122 18.5924 18.4122 17.4379C18.4122 16.2834 17.4168 15.3475 16.1888 15.3475C14.9608 15.3475 13.9654 16.2834 13.9654 17.4379C13.9654 18.5924 14.9608 19.5283 16.1888 19.5283Z" fill="#455A64"/>
<path d="M24.347 1.79887C23.7083 4.76244 29.2738 10.5662 33.0128 10.0501C34.1763 7.22289 34.6528 5.30452 34.9704 2.00337C35.1327 0.331693 34.6113 -0.145465 32.9645 0.0363095C28.5971 0.516713 26.8708 0.828326 24.347 1.79887Z" fill="#E53935"/>
<path opacity="0.2" d="M33.5549 0.974401C33.762 0.974401 33.8656 0.997123 33.9036 1.01011C33.9312 1.06853 34.0003 1.29575 33.9416 1.91573C33.6343 5.11301 33.1924 6.93076 32.0496 9.70281C31.1727 11.8614 29.5017 14.364 27.986 15.789C22.7002 20.7586 17.1486 23.8488 13.4958 23.8488C12.5119 23.8488 11.6764 23.6248 11.0135 23.1833L10.8995 23.1087C10.7235 22.9951 10.575 22.8944 10.4507 22.7906C9.89141 22.3167 9.59449 21.5928 9.56687 20.6385C9.4702 17.1653 12.9158 11.4329 17.9496 6.70029C19.5274 5.21688 22.3101 3.57442 24.713 2.71099L24.7337 2.70126C27.1747 1.76317 28.8733 1.46779 33.0785 1.00362C33.2614 0.98414 33.4202 0.974401 33.5549 0.974401ZM33.5549 0.000610352C33.3754 0.000610352 33.182 0.0135944 32.9645 0.0363162C28.5971 0.51672 26.8708 0.828333 24.3471 1.79888C21.8889 2.68178 18.9715 4.36319 17.2211 6.0089C10.247 12.5658 6.40783 20.6774 9.76021 23.5112C9.96046 23.68 10.1849 23.8228 10.4162 23.9753C11.2793 24.5499 12.322 24.8193 13.4958 24.8193C17.6319 24.8193 23.3907 21.4857 28.7214 16.4772C30.3959 14.9029 32.1083 12.2931 33.0163 10.0501C34.1798 7.22289 34.6562 5.30453 34.9739 2.00337C35.1085 0.552426 34.7357 0.000610352 33.5549 0.000610352Z" fill="#424242"/>
<path opacity="0.2" d="M16.1887 15.9967C16.5996 15.9967 16.9828 16.146 17.2728 16.4187C17.5628 16.6914 17.7216 17.0517 17.7216 17.4379C17.7216 17.8242 17.5628 18.1845 17.2728 18.4572C16.9828 18.7298 16.5996 18.8791 16.1887 18.8791C15.7779 18.8791 15.3946 18.7298 15.1046 18.4572C14.8146 18.1845 14.6558 17.8242 14.6558 17.4379C14.6558 17.0517 14.8146 16.6914 15.1046 16.4187C15.3981 16.146 15.7813 15.9967 16.1887 15.9967ZM16.1887 15.3475C15.6191 15.3475 15.0528 15.552 14.6178 15.961C13.7513 16.7758 13.7513 18.1001 14.6178 18.9149C15.0528 19.3238 15.6191 19.5283 16.1887 19.5283C16.7584 19.5283 17.3246 19.3238 17.7596 18.9149C18.6262 18.1001 18.6262 16.7758 17.7596 15.961C17.328 15.552 16.7584 15.3475 16.1887 15.3475Z" fill="#424242"/>
<defs>
<linearGradient id="paint0_linear_5_143" x1="11.1633" y1="27.3894" x2="-0.00345243" y2="27.3894" gradientUnits="userSpaceOnUse">
<stop stop-color="#FF6D00"/>
<stop offset="0.2487" stop-color="#FF9B00"/>
<stop offset="0.5135" stop-color="#FFC600"/>
<stop offset="0.721" stop-color="#FFE000"/>
<stop offset="0.8439" stop-color="#FFEA00"/>
</linearGradient>
<linearGradient id="paint1_linear_5_143" x1="7.37629" y1="25.6457" x2="1.96123" y2="31.5804" gradientUnits="userSpaceOnUse">
<stop offset="0.0044475" stop-color="#C62828"/>
<stop offset="0.2711" stop-color="#D75327"/>
<stop offset="0.5983" stop-color="#E98126"/>
<stop offset="0.8504" stop-color="#F59D25"/>
<stop offset="0.9953" stop-color="#F9A825"/>
</linearGradient>
<radialGradient id="paint2_radial_5_143" cx="0" cy="0" r="1" gradientUnits="userSpaceOnUse" gradientTransform="translate(23.6186 6.34643) rotate(180) scale(12.5923 11.839)">
<stop offset="0.0112" stop-color="#F5F5F5"/>
<stop offset="0.9995" stop-color="#BDBDBD"/>
</radialGradient>
</defs>
</svg>
