<svg width="38" height="39" viewBox="0 0 38 39" fill="none" xmlns="http://www.w3.org/2000/svg">
<path d="M30.6923 0.462769H7.30769C3.27385 0.462769 0 2.39731 0 4.78095V34.1446C0 36.5282 3.27385 38.4628 7.30769 38.4628H30.6923C34.7262 38.4628 38 36.5282 38 34.1446V4.78095C38 2.39731 34.7262 0.462769 30.6923 0.462769ZM19 36.7355C16.5738 36.7355 14.6154 35.5782 14.6154 34.1446C14.6154 32.711 16.5738 31.5537 19 31.5537C21.4262 31.5537 23.3846 32.711 23.3846 34.1446C23.3846 35.5782 21.4262 36.7355 19 36.7355ZM32.1538 29.8264H5.84615V5.64459H32.1538V29.8264Z" fill="#23CBC2"/>
</svg>
