<svg width="38" height="28" viewBox="0 0 38 28" fill="none" xmlns="http://www.w3.org/2000/svg">
<path d="M34.2 0H3.8C1.71 0 0.019 1.575 0.019 3.5L0 24.5C0 26.425 1.71 28 3.8 28H34.2C36.29 28 38 26.425 38 24.5V3.5C38 1.575 36.29 0 34.2 0ZM33.44 7.4375L20.007 15.1725C19.399 15.5225 18.601 15.5225 17.993 15.1725L4.56 7.4375C4.085 7.1575 3.8 6.685 3.8 6.1775C3.8 5.005 5.187 4.305 6.27 4.9175L19 12.25L31.73 4.9175C32.813 4.305 34.2 5.005 34.2 6.1775C34.2 6.685 33.915 7.1575 33.44 7.4375Z" fill="#23CBC2"/>
</svg>
