<svg width="32" height="29" viewBox="0 0 32 29" fill="none" xmlns="http://www.w3.org/2000/svg">
<path d="M28 5.92747C26.52 5.51254 24.8933 5.33472 23.3333 5.33472C20.7333 5.33472 17.9333 5.80892 16 7.11299C14.0666 5.80892 11.2666 5.33472 8.66665 5.33472C6.06665 5.33472 3.26665 5.80892 1.33331 7.11299V24.4808C1.33331 24.7771 1.66665 25.0735 1.99998 25.0735C2.13331 25.0735 2.19998 25.0142 2.33331 25.0142C4.13331 24.2437 6.73331 23.7102 8.66665 23.7102C11.2666 23.7102 14.0666 24.1844 16 25.4885C17.8 24.4808 21.0666 23.7102 23.3333 23.7102C25.5333 23.7102 27.8 24.0658 29.6666 24.955C29.8 25.0142 29.8666 25.0142 30 25.0142C30.3333 25.0142 30.6666 24.7179 30.6666 24.4215V7.11299C29.8666 6.57951 29 6.22385 28 5.92747ZM3.99998 21.9319V8.2985C5.46665 7.88357 7.06665 7.70574 8.66665 7.70574C10.4533 7.70574 12.84 8.1918 14.6666 8.8794V22.5128C12.84 21.8252 10.4533 21.3392 8.66665 21.3392C7.06665 21.3392 5.46665 21.517 3.99998 21.9319ZM28 21.9319C26.5333 21.517 24.9333 21.3392 23.3333 21.3392C21.5466 21.3392 19.16 21.8252 17.3333 22.5128V8.8794C19.16 8.17995 21.5466 7.70574 23.3333 7.70574C24.9333 7.70574 26.5333 7.88357 28 8.2985V21.9319Z" fill="url(#paint0_linear_9_5)"/>
<path opacity="0.3" d="M14.6667 8.87947C12.84 8.19187 10.4533 7.70581 8.66667 7.70581C7.06667 7.70581 5.46667 7.88364 4 8.29857V21.932C5.46667 21.517 7.06667 21.3392 8.66667 21.3392C10.4533 21.3392 12.84 21.8253 14.6667 22.5129V8.87947Z" fill="url(#paint1_linear_9_5)"/>
<path d="M23.3334 12.4479C24.5067 12.4479 25.64 12.5546 26.6667 12.7562V10.9542C25.6134 10.7764 24.48 10.6697 23.3334 10.6697C21.6267 10.6697 20.0534 10.8594 18.6667 11.2269V13.0881C19.9867 12.6732 21.5734 12.4479 23.3334 12.4479Z" fill="url(#paint2_linear_9_5)"/>
<path d="M23.3334 15.6014C24.5067 15.6014 25.64 15.7081 26.6667 15.9096V14.1076C25.6134 13.9298 24.48 13.8231 23.3334 13.8231C21.6267 13.8231 20.0534 14.0128 18.6667 14.3803V16.2416C19.9867 15.8385 21.5734 15.6014 23.3334 15.6014Z" fill="url(#paint3_linear_9_5)"/>
<path d="M23.3334 18.7667C24.5067 18.7667 25.64 18.8734 26.6667 19.0749V17.2729C25.6134 17.0951 24.48 16.9884 23.3334 16.9884C21.6267 16.9884 20.0534 17.1781 18.6667 17.5456V19.4069C19.9867 18.9919 21.5734 18.7667 23.3334 18.7667Z" fill="url(#paint4_linear_9_5)"/>
<defs>
<linearGradient id="paint0_linear_9_5" x1="16" y1="5.33472" x2="16" y2="25.4885" gradientUnits="userSpaceOnUse">
<stop stop-color="#23CBC2"/>
<stop offset="1" stop-color="#116561"/>
</linearGradient>
<linearGradient id="paint1_linear_9_5" x1="9.33333" y1="7.70581" x2="9.33333" y2="22.5129" gradientUnits="userSpaceOnUse">
<stop stop-color="#23CBC2"/>
<stop offset="1" stop-color="#116561"/>
</linearGradient>
<linearGradient id="paint2_linear_9_5" x1="22.6667" y1="10.6697" x2="22.6667" y2="13.0881" gradientUnits="userSpaceOnUse">
<stop stop-color="#23CBC2"/>
<stop offset="1" stop-color="#116561"/>
</linearGradient>
<linearGradient id="paint3_linear_9_5" x1="22.6667" y1="13.8231" x2="22.6667" y2="16.2416" gradientUnits="userSpaceOnUse">
<stop stop-color="#23CBC2"/>
<stop offset="1" stop-color="#116561"/>
</linearGradient>
<linearGradient id="paint4_linear_9_5" x1="22.6667" y1="16.9884" x2="22.6667" y2="19.4069" gradientUnits="userSpaceOnUse">
<stop stop-color="#23CBC2"/>
<stop offset="1" stop-color="#116561"/>
</linearGradient>
</defs>
</svg>
