<svg width="38" height="38" viewBox="0 0 38 38" fill="none" xmlns="http://www.w3.org/2000/svg">
<path d="M4.52381 0C2.03615 0 0 2.03615 0 4.52381V33.4762C0 35.9638 2.03615 38 4.52381 38H33.4762C35.9638 38 38 35.9638 38 33.4762V4.52381C38 2.03615 35.9638 0 33.4762 0H4.52381ZM4.52381 1.80952H33.4762C34.9858 1.80952 36.1905 3.01423 36.1905 4.52381V33.4762C36.1905 34.9858 34.9858 36.1905 33.4762 36.1905H4.52381C3.01423 36.1905 1.80952 34.9858 1.80952 33.4762V4.52381C1.80952 3.01423 3.01423 1.80952 4.52381 1.80952ZM9.04762 6.34394C8.0567 6.34394 7.16501 6.64012 6.50474 7.19568C5.84448 7.75125 5.43917 8.58122 5.43917 9.46996C5.43917 11.1593 6.9045 12.4763 8.76842 12.6066L8.77195 12.6084C8.86077 12.6386 8.95379 12.6547 9.04762 12.6561C11.1042 12.6561 12.6561 11.2155 12.6561 9.46996C12.6559 9.45404 12.6553 9.43813 12.6543 9.42225C12.5622 7.70299 11.0294 6.34394 9.04762 6.34394ZM9.04762 8.13225C10.3073 8.13225 10.8046 8.6948 10.8589 9.49293C10.8479 10.2676 10.3687 10.8677 9.04762 10.8677C7.79416 10.8677 7.22749 10.2258 7.22749 9.46996C7.22749 9.09203 7.3654 8.80722 7.65513 8.56343C7.94487 8.31964 8.40996 8.13225 9.04762 8.13225ZM6.33333 13.5714C6.09338 13.5715 5.86327 13.6668 5.6936 13.8365C5.52393 14.0061 5.4286 14.2362 5.42857 14.4762V31.6667C5.4286 31.9066 5.52393 32.1367 5.6936 32.3064C5.86327 32.4761 6.09338 32.5714 6.33333 32.5714H11.7619C12.0019 32.5714 12.232 32.4761 12.4016 32.3064C12.5713 32.1367 12.6666 31.9066 12.6667 31.6667V26.36V14.4762C12.6666 14.2362 12.5713 14.0061 12.4016 13.8365C12.232 13.6668 12.0019 13.5715 11.7619 13.5714H6.33333ZM14.4762 13.5714C14.2362 13.5715 14.0061 13.6668 13.8365 13.8365C13.6668 14.0061 13.5715 14.2362 13.5714 14.4762V31.6667C13.5715 31.9066 13.6668 32.1367 13.8365 32.3064C14.0061 32.4761 14.2362 32.5714 14.4762 32.5714H19.9048C20.1447 32.5714 20.3748 32.4761 20.5445 32.3064C20.7142 32.1367 20.8095 31.9066 20.8095 31.6667V22.619C20.8095 21.8684 21.0144 21.1217 21.375 20.6328C21.7356 20.1439 22.1906 19.8505 23.0555 19.8659C23.9474 19.8812 24.4195 20.1867 24.7767 20.6664C25.1339 21.146 25.3333 21.8651 25.3333 22.619V31.6667C25.3334 31.9066 25.4287 32.1367 25.5984 32.3064C25.768 32.4761 25.9981 32.5714 26.2381 32.5714H31.6667C31.9066 32.5714 32.1367 32.4761 32.3064 32.3064C32.4761 32.1367 32.5714 31.9066 32.5714 31.6667V21.9511C32.5714 19.2716 31.7778 17.1492 30.4173 15.7132C29.0569 14.2772 27.1647 13.5714 25.1637 13.5714C23.2619 13.5714 21.8146 14.2092 20.8095 14.8597V14.4762C20.8095 14.2362 20.7142 14.0061 20.5445 13.8365C20.3748 13.6668 20.1447 13.5715 19.9048 13.5714H14.4762ZM7.2381 15.381H10.8571V26.36V30.7619H7.2381V15.381ZM15.381 15.381H19V16.7929C19.0001 16.9826 19.0597 17.1675 19.1706 17.3214C19.2815 17.4754 19.438 17.5906 19.6179 17.6507C19.7978 17.7109 19.9921 17.713 20.1733 17.6567C20.3544 17.6005 20.5133 17.4887 20.6275 17.3371C20.6275 17.3371 22.0483 15.381 25.1637 15.381C26.75 15.381 28.1104 15.908 29.1044 16.9572C30.0983 18.0064 30.7619 19.6227 30.7619 21.9511V30.7619H27.1429V22.619C27.1429 21.5635 26.8899 20.4721 26.2293 19.5849C25.5686 18.6977 24.4574 18.0799 23.0873 18.0564C21.7102 18.0319 20.5811 18.6625 19.9189 19.5602C19.2567 20.4578 19 21.5602 19 22.619V30.7619H15.381V15.381Z" fill="#23CBC2"/>
</svg>
