<svg width="288" height="40" viewBox="0 0 288 40" fill="none" xmlns="http://www.w3.org/2000/svg">
<path d="M29.032 5.736L19.768 39H9.97601L0.376007 5.736H8.68001L15.016 32.856L20.968 5.736H29.032Z" fill="#141414"/>
<path d="M38.935 13.512V39H31.351V13.512H38.935ZM35.095 0.0719976C36.407 0.0719976 37.479 0.487998 38.311 1.32C39.175 2.12 39.607 3.144 39.607 4.392C39.607 5.64 39.175 6.68 38.311 7.512C37.479 8.312 36.407 8.712 35.095 8.712C33.783 8.712 32.711 8.312 31.879 7.512C31.047 6.68 30.631 5.64 30.631 4.392C30.631 3.144 31.047 2.12 31.879 1.32C32.711 0.487998 33.783 0.0719976 35.095 0.0719976Z" fill="#141414"/>
<path d="M60.8819 37.8C59.9539 38.44 58.8659 38.936 57.6179 39.288C56.4019 39.64 55.1859 39.816 53.9699 39.816C48.4019 39.784 45.6179 36.712 45.6179 30.6V18.792H42.0179V13.512H45.6179V7.992L53.2019 7.128V13.512H59.0579L58.2419 18.792H53.2019V30.504C53.2019 31.688 53.3939 32.536 53.7779 33.048C54.1619 33.56 54.7699 33.816 55.6019 33.816C56.4659 33.816 57.3779 33.544 58.3379 33L60.8819 37.8Z" fill="#141414"/>
<path d="M73.6098 12.696C77.5138 12.696 80.5698 13.896 82.7778 16.296C84.9858 18.664 86.0898 21.992 86.0898 26.28C86.0898 29 85.5778 31.384 84.5538 33.432C83.5618 35.448 82.1218 37.016 80.2338 38.136C78.3778 39.256 76.1698 39.816 73.6098 39.816C69.7378 39.816 66.6818 38.632 64.4418 36.264C62.2338 33.864 61.1298 30.52 61.1298 26.232C61.1298 23.512 61.6258 21.144 62.6178 19.128C63.6418 17.08 65.0818 15.496 66.9378 14.376C68.8258 13.256 71.0498 12.696 73.6098 12.696ZM73.6098 18.264C72.0738 18.264 70.9218 18.92 70.1538 20.232C69.3858 21.512 69.0018 23.512 69.0018 26.232C69.0018 29.016 69.3698 31.048 70.1058 32.328C70.8738 33.608 72.0418 34.248 73.6098 34.248C75.1458 34.248 76.2978 33.608 77.0658 32.328C77.8338 31.016 78.2178 29 78.2178 26.28C78.2178 23.496 77.8338 21.464 77.0658 20.184C76.3298 18.904 75.1778 18.264 73.6098 18.264Z" fill="#141414"/>
<path d="M104.425 12.792C105.353 12.792 106.201 12.904 106.969 13.128L105.769 20.472C104.809 20.248 104.041 20.136 103.465 20.136C101.961 20.136 100.809 20.664 100.009 21.72C99.241 22.744 98.633 24.296 98.185 26.376V39H90.601V13.512H97.225L97.849 18.456C98.425 16.696 99.289 15.32 100.441 14.328C101.625 13.304 102.953 12.792 104.425 12.792Z" fill="#141414"/>
<path d="M139.113 21.384C141.321 21.8 143.113 22.616 144.489 23.832C145.897 25.048 146.601 26.872 146.601 29.304C146.601 32.856 145.321 35.368 142.761 36.84C140.233 38.28 136.681 39 132.105 39H121.401V5.736H130.809C135.481 5.736 139.049 6.408 141.513 7.752C143.977 9.064 145.209 11.224 145.209 14.232C145.209 16.184 144.617 17.768 143.433 18.984C142.281 20.168 140.841 20.968 139.113 21.384ZM129.273 11.304V19.032H132.201C135.529 19.032 137.193 17.688 137.193 15C137.193 13.656 136.745 12.712 135.849 12.168C134.953 11.592 133.529 11.304 131.577 11.304H129.273ZM132.153 33.288C134.233 33.288 135.801 32.984 136.857 32.376C137.945 31.736 138.489 30.568 138.489 28.872C138.489 25.8 136.569 24.264 132.729 24.264H129.273V33.288H132.153Z" fill="#141414"/>
<path d="M173.106 25.752C173.106 26.808 173.058 27.72 172.962 28.488H157.17C157.426 30.632 158.034 32.136 158.994 33C159.954 33.864 161.282 34.296 162.978 34.296C164.002 34.296 164.994 34.12 165.954 33.768C166.914 33.384 167.954 32.808 169.074 32.04L172.194 36.264C169.218 38.632 165.906 39.816 162.258 39.816C158.13 39.816 154.962 38.6 152.754 36.168C150.546 33.736 149.442 30.472 149.442 26.376C149.442 23.784 149.906 21.464 150.834 19.416C151.762 17.336 153.122 15.704 154.914 14.52C156.706 13.304 158.85 12.696 161.346 12.696C165.026 12.696 167.906 13.848 169.986 16.152C172.066 18.456 173.106 21.656 173.106 25.752ZM165.666 23.592C165.602 19.688 164.226 17.736 161.538 17.736C160.226 17.736 159.202 18.216 158.466 19.176C157.762 20.136 157.33 21.72 157.17 23.928H165.666V23.592Z" fill="#141414"/>
<path d="M191.191 12.792C192.119 12.792 192.967 12.904 193.735 13.128L192.535 20.472C191.575 20.248 190.807 20.136 190.231 20.136C188.727 20.136 187.575 20.664 186.775 21.72C186.007 22.744 185.399 24.296 184.951 26.376V39H177.367V13.512H183.991L184.615 18.456C185.191 16.696 186.055 15.32 187.207 14.328C188.391 13.304 189.719 12.792 191.191 12.792Z" fill="#141414"/>
<path d="M215.201 31.608C215.201 32.568 215.329 33.272 215.585 33.72C215.873 34.168 216.321 34.504 216.929 34.728L215.345 39.672C213.777 39.544 212.497 39.208 211.505 38.664C210.513 38.088 209.745 37.192 209.201 35.976C207.537 38.536 204.977 39.816 201.521 39.816C198.993 39.816 196.977 39.08 195.473 37.608C193.969 36.136 193.217 34.216 193.217 31.848C193.217 29.064 194.241 26.936 196.289 25.464C198.337 23.992 201.297 23.256 205.169 23.256H207.761V22.152C207.761 20.648 207.441 19.624 206.801 19.08C206.161 18.504 205.041 18.216 203.441 18.216C202.609 18.216 201.601 18.344 200.417 18.6C199.233 18.824 198.017 19.144 196.769 19.56L195.041 14.568C196.641 13.96 198.273 13.496 199.937 13.176C201.633 12.856 203.201 12.696 204.641 12.696C208.289 12.696 210.961 13.448 212.657 14.952C214.353 16.456 215.201 18.712 215.201 21.72V31.608ZM203.729 34.392C205.457 34.392 206.801 33.576 207.761 31.944V27.432H205.889C204.161 27.432 202.865 27.736 202.001 28.344C201.169 28.952 200.753 29.896 200.753 31.176C200.753 32.2 201.009 33 201.521 33.576C202.065 34.12 202.801 34.392 203.729 34.392Z" fill="#141414"/>
<path d="M227.541 39.816C225.333 39.816 223.605 39.192 222.357 37.944C221.141 36.664 220.533 34.856 220.533 32.52V3.384L228.117 2.568V32.232C228.117 33.288 228.549 33.816 229.413 33.816C229.861 33.816 230.277 33.736 230.661 33.576L232.149 38.952C230.773 39.528 229.237 39.816 227.541 39.816Z" fill="#141414"/>
<path d="M257.637 3.384V39H250.917L250.533 36.024C248.741 38.552 246.325 39.816 243.285 39.816C240.116 39.816 237.701 38.6 236.037 36.168C234.405 33.736 233.589 30.408 233.589 26.184C233.589 23.592 234.021 21.272 234.885 19.224C235.749 17.176 236.965 15.576 238.533 14.424C240.133 13.272 241.957 12.696 244.005 12.696C246.437 12.696 248.453 13.496 250.053 15.096V2.568L257.637 3.384ZM245.637 34.248C247.397 34.248 248.869 33.288 250.053 31.368V20.376C249.445 19.64 248.821 19.096 248.181 18.744C247.573 18.392 246.869 18.216 246.069 18.216C244.661 18.216 243.541 18.872 242.709 20.184C241.877 21.496 241.461 23.512 241.461 26.232C241.461 29.208 241.813 31.288 242.517 32.472C243.253 33.656 244.293 34.248 245.637 34.248Z" fill="#141414"/>
<path d="M274.61 12.696C278.514 12.696 281.57 13.896 283.778 16.296C285.986 18.664 287.09 21.992 287.09 26.28C287.09 29 286.578 31.384 285.554 33.432C284.562 35.448 283.122 37.016 281.234 38.136C279.378 39.256 277.17 39.816 274.61 39.816C270.738 39.816 267.682 38.632 265.442 36.264C263.234 33.864 262.13 30.52 262.13 26.232C262.13 23.512 262.626 21.144 263.618 19.128C264.642 17.08 266.082 15.496 267.938 14.376C269.826 13.256 272.05 12.696 274.61 12.696ZM274.61 18.264C273.074 18.264 271.922 18.92 271.154 20.232C270.386 21.512 270.002 23.512 270.002 26.232C270.002 29.016 270.37 31.048 271.106 32.328C271.874 33.608 273.042 34.248 274.61 34.248C276.146 34.248 277.298 33.608 278.066 32.328C278.834 31.016 279.218 29 279.218 26.28C279.218 23.496 278.834 21.464 278.066 20.184C277.33 18.904 276.178 18.264 274.61 18.264Z" fill="#141414"/>
</svg>
