<svg width="46" height="115" viewBox="0 0 46 115" fill="none" xmlns="http://www.w3.org/2000/svg">
<path d="M38.3389 85.4592H32.2622L28.7542 81.8546H17.2525L13.7445 85.4592H7.66778C5.55914 85.4592 3.83389 87.0812 3.83389 89.0637V110.691C3.83389 112.673 5.55914 114.295 7.66778 114.295H38.3389C40.4476 114.295 42.1728 112.673 42.1728 110.691V89.0637C42.1728 87.0812 40.4476 85.4592 38.3389 85.4592ZM38.3389 110.691H7.66778V89.0637H15.4314L18.9394 85.4592H27.0673L30.5753 89.0637H38.3389V110.691ZM23.0033 90.866C17.7126 90.866 13.4186 94.903 13.4186 99.8773C13.4186 104.852 17.7126 108.889 23.0033 108.889C28.2941 108.889 32.5881 104.852 32.5881 99.8773C32.5881 94.903 28.2941 90.866 23.0033 90.866ZM23.0033 105.284C19.8404 105.284 17.2525 102.851 17.2525 99.8773C17.2525 96.9036 19.8404 94.4705 23.0033 94.4705C26.1663 94.4705 28.7542 96.9036 28.7542 99.8773C28.7542 102.851 26.1663 105.284 23.0033 105.284Z" fill="#23CBC2"/>
</svg>
